<svg id="Layer_1" data-name="Layer 1" xmlns="http://www.w3.org/2000/svg" viewBox="0 0 118.91 118.91"><defs><style>.cls-1{fill:#fff;}</style></defs><title>memo</title><path class="cls-1" d="M114.16,109.26H4.76a4.12,4.12,0,0,0-4.1,4.1,4.19,4.19,0,0,0,4.1,4.1h109.5a4.12,4.12,0,0,0,4.1-4.1A4.21,4.21,0,0,0,114.16,109.26Z"/><path class="cls-1" d="M.66,73l-.1,19.5a4.23,4.23,0,0,0,1.2,3,4,4,0,0,0,2.9,1.2l19.4-.1a4,4,0,0,0,2.9-1.2l67-67a4.23,4.23,0,0,0,0-5.9L74.76,3.06a4.23,4.23,0,0,0-5.9,0l-13.4,13.5L1.86,70.06A4.45,4.45,0,0,0,.66,73Zm71.2-61.1,13.5,13.5L77.76,33l-13.5-13.5ZM9,74.76l49.4-49.4,13.5,13.5-49.4,49.3-13.6.1Z"/></svg>