<svg id="Layer_1" data-name="Layer 1" xmlns="http://www.w3.org/2000/svg" viewBox="0 0 1042 245"><defs><style>.cls-1{fill:#000100;}</style></defs><title>FANTOM_LOGO</title><polygon class="cls-1" points="251.29 63.38 251.29 177.26 275.29 177.26 275.29 129.38 340.29 129.38 340.29 105.38 275.29 105.38 275.29 87.21 353.46 87.21 353.46 63.38 251.29 63.38"/><path class="cls-1" d="M431.46,63.38H403.62l-47.5,113.88h26.17l13-29.88H441l13,29.88h26.5Zm-29.34,66L418,92.29l16,37.09Z"/><polygon class="cls-1" points="498.46 63.38 498.46 177.26 522.62 177.26 522.62 107.05 578.62 177.26 606.29 177.26 606.29 63.38 581.29 63.38 581.62 133.54 525.29 63.38 498.46 63.38"/><polygon class="cls-1" points="632.29 63.38 632.29 88.05 670.62 88.05 670.62 177.26 695.29 177.26 695.29 88.05 734.12 88.05 734.12 63.38 632.29 63.38"/><path class="cls-1" d="M840.61,63.38H775.8a18.51,18.51,0,0,0-18.51,18.51v76.86a18.51,18.51,0,0,0,18.51,18.51h64.81a18.51,18.51,0,0,0,18.51-18.51V81.89A18.51,18.51,0,0,0,840.61,63.38Zm-5.15,90h-54v-66h54Z"/><polygon class="cls-1" points="887.46 63.38 887.46 177.26 912.46 177.26 912.46 102.21 953.46 155.04 995.46 102.55 995.46 177.26 1019.46 177.26 1019.46 63.38 994.62 63.38 953.46 115.38 913.12 63.38 887.46 63.38"/><path id="Path_1144" data-name="Path 1144" d="M99.13,87.15l40.12-23.21v46.37Zm40.12,98.93L86.37,216.67,33.46,186.11V132.33l52.91,30.54,52.88-30.54ZM33.46,63.94,73.62,87.15,33.46,110.36Zm59.28,34.2,40.16,23.21L92.74,144.56ZM80,144.49,39.87,121.28,80,98.07v46.42Zm52.94-91.63L86.39,79.77h0l-46.6-26.9L86.37,26ZM20.72,49.17v144.3l65.65,37.9L152,193.44V49.17L86.37,11.26Z"/></svg>