<svg xmlns="http://www.w3.org/2000/svg" viewBox="0 0 690.39 202.81"><defs><style>.cls-1{fill:#fff;}</style></defs><title>FantomWallet</title><g id="Layer_1" data-name="Layer 1"><polygon class="cls-1" points="0 103.78 21.91 103.78 21.91 60.27 80.98 60.27 80.98 38.37 21.91 38.37 21.91 21.9 93.05 21.9 93.05 0 0 0 0 103.78"/><path class="cls-1" d="M135.07,0,91.58,103.78h23.94l11.26-27h42.71l11.67,27H205.1L160.37,0Zm-1.4,60.27,14.08-33.74,14.6,33.74Z"/><polygon class="cls-1" points="298.26 64.7 246.34 0 221.63 0 221.63 103.78 243.53 103.78 243.53 39.01 295.45 103.78 320.16 103.78 320.16 0 298.26 0 298.26 64.7"/><polygon class="cls-1" points="344.48 21.9 380.06 21.9 380.06 103.78 401.96 103.78 401.96 21.9 437.53 21.9 437.53 0 344.48 0 344.48 21.9"/><path class="cls-1" d="M531.27.06H471.05a15.78,15.78,0,0,0-11.57,4.77,15.87,15.87,0,0,0-4.84,11.64v71a16.51,16.51,0,0,0,16.41,16.41h60.22a16.39,16.39,0,0,0,16.41-16.41V16.47A16.29,16.29,0,0,0,531.27.06Zm-5.49,81.87H476.55V22h49.23Z"/><polygon class="cls-1" points="667.7 0.06 630.17 47.98 592.64 0.06 569.95 0.06 569.95 103.83 591.85 103.83 591.85 34.52 630.17 83.5 668.49 34.52 668.49 103.83 690.39 103.83 690.39 0.06 667.7 0.06"/><path class="cls-1" d="M56,158.31h5L70.93,192l11-33.65h3.45l11,33.65,9.89-33.65h5l-13,44.5h-3.2L83.64,168.4,72.2,202.81H69Z"/><path class="cls-1" d="M199.16,158.31H203l18.83,44.5h-5.36l-4.6-11H190.28l-4.59,11h-5.37ZM210,187.23,201.07,166l-8.87,21.2Z"/><path class="cls-1" d="M300.13,158.31h5v39.9h18.32v4.6h-23.3Z"/><path class="cls-1" d="M402,158.31h5v39.9H425.3v4.6H402Z"/><path class="cls-1" d="M503.86,158.31H529v4.6H508.84V177h19v4.6h-19v16.59h20.62v4.6h-25.6Z"/><path class="cls-1" d="M617.29,162.91H605.16v-4.6H634.4v4.6H622.27v39.9h-5Z"/></g></svg>